<svg width="50" height="50" viewBox="0 0 50 50" fill="none" xmlns="http://www.w3.org/2000/svg">
<path d="M7.01562 0H27.343V50H7.01562V0Z" fill="#5E35B1"/>
<path d="M27.3428 0H47.6705V50H27.3428V0Z" fill="#5E35B1" fill-opacity="0.9"/>
<path d="M2.34375 4.76404H11.6875V7.69373H2.34375V4.76404Z" fill="#04D361"/>
<path d="M2.34375 14.1497H11.6875V17.0793H2.34375V14.1497Z" fill="#04D361"/>
<path d="M2.34375 23.5352H11.6875V26.4648H2.34375V23.5352Z" fill="#04D361"/>
<path d="M2.34375 32.9204H11.6875V35.8501H2.34375V32.9204Z" fill="#04D361"/>
<path d="M2.34375 42.3059H11.6875V45.2356H2.34375V42.3059Z" fill="#04D361"/>
<path d="M33.4504 19.0887V9.34363H27.3431L25.3884 25.4882L27.3431 40.6562H33.4504V30.9112H30.2754V19.0887H33.4504Z" fill="#B4D2D7"/>
<path d="M26.9127 9.34363C24.2836 9.34363 22.1523 11.4749 22.1523 14.1036V35.8962C22.1523 38.5253 24.2836 40.6566 26.9127 40.6566H27.343V9.34363H26.9127Z" fill="#E1EBF0"/>
</svg>
